<mxfile host="Electron" agent="Mozilla/5.0 (Windows NT 10.0; Win64; x64) AppleWebKit/537.36 (KHTML, like Gecko) draw.io/24.7.17 Chrome/128.0.6613.36 Electron/32.0.1 Safari/537.36" version="24.7.17">
  <diagram name="第 1 页" id="E65tHflGb6K1pna1Sad4">
    <mxGraphModel dx="1562" dy="909" grid="1" gridSize="10" guides="1" tooltips="1" connect="1" arrows="1" fold="1" page="1" pageScale="1" pageWidth="827" pageHeight="1169" math="0" shadow="0">
      <root>
        <mxCell id="0" />
        <mxCell id="1" parent="0" />
        <mxCell id="DmtLt5xf5tyt0vWxurnO-87" value="流浪动物救助平台" style="rounded=0;whiteSpace=wrap;html=1;align=center;verticalAlign=top;fontSize=21;fontStyle=1" parent="1" vertex="1">
          <mxGeometry x="130" y="20" width="690" height="810" as="geometry" />
        </mxCell>
        <mxCell id="DmtLt5xf5tyt0vWxurnO-54" value="" style="edgeStyle=orthogonalEdgeStyle;rounded=0;orthogonalLoop=1;jettySize=auto;html=1;endArrow=block;endFill=0;startSize=6;sourcePerimeterSpacing=15;endSize=15;" parent="1" source="DmtLt5xf5tyt0vWxurnO-2" edge="1">
          <mxGeometry relative="1" as="geometry">
            <mxPoint x="45" y="410" as="targetPoint" />
          </mxGeometry>
        </mxCell>
        <mxCell id="DmtLt5xf5tyt0vWxurnO-2" value="管理员" style="shape=umlActor;verticalLabelPosition=bottom;verticalAlign=top;html=1;outlineConnect=0;" parent="1" vertex="1">
          <mxGeometry x="5" y="530" width="80" height="135" as="geometry" />
        </mxCell>
        <mxCell id="DmtLt5xf5tyt0vWxurnO-5" value="访问论坛" style="ellipse;whiteSpace=wrap;html=1;" parent="1" vertex="1">
          <mxGeometry x="200" y="200" width="90" height="50" as="geometry" />
        </mxCell>
        <mxCell id="DmtLt5xf5tyt0vWxurnO-6" value="用户登录" style="ellipse;whiteSpace=wrap;html=1;" parent="1" vertex="1">
          <mxGeometry x="720" y="330" width="90" height="50" as="geometry" />
        </mxCell>
        <mxCell id="DmtLt5xf5tyt0vWxurnO-7" value="管理员登录" style="ellipse;whiteSpace=wrap;html=1;" parent="1" vertex="1">
          <mxGeometry x="720" y="700" width="90" height="50" as="geometry" />
        </mxCell>
        <mxCell id="DmtLt5xf5tyt0vWxurnO-8" value="访问用户主页" style="ellipse;whiteSpace=wrap;html=1;" parent="1" vertex="1">
          <mxGeometry x="230" y="90" width="90" height="50" as="geometry" />
        </mxCell>
        <mxCell id="DmtLt5xf5tyt0vWxurnO-9" value="访问动物主页" style="ellipse;whiteSpace=wrap;html=1;" parent="1" vertex="1">
          <mxGeometry x="360" y="90" width="90" height="50" as="geometry" />
        </mxCell>
        <mxCell id="DmtLt5xf5tyt0vWxurnO-10" value="阅览帖子" style="ellipse;whiteSpace=wrap;html=1;" parent="1" vertex="1">
          <mxGeometry x="490" y="90" width="90" height="50" as="geometry" />
        </mxCell>
        <mxCell id="DmtLt5xf5tyt0vWxurnO-16" value="投喂动物" style="ellipse;whiteSpace=wrap;html=1;" parent="1" vertex="1">
          <mxGeometry x="470" y="330" width="90" height="50" as="geometry" />
        </mxCell>
        <mxCell id="DmtLt5xf5tyt0vWxurnO-42" style="edgeStyle=orthogonalEdgeStyle;rounded=0;orthogonalLoop=1;jettySize=auto;html=1;dashed=1;strokeColor=default;align=center;verticalAlign=middle;fontFamily=Helvetica;fontSize=11;fontColor=default;labelBackgroundColor=default;endArrow=open;endFill=0;" parent="1" source="DmtLt5xf5tyt0vWxurnO-16" target="DmtLt5xf5tyt0vWxurnO-17" edge="1">
          <mxGeometry relative="1" as="geometry">
            <Array as="points">
              <mxPoint x="245" y="355" />
            </Array>
          </mxGeometry>
        </mxCell>
        <mxCell id="DmtLt5xf5tyt0vWxurnO-97" value="&amp;lt;&amp;lt;extend&amp;gt;&amp;gt;" style="edgeLabel;html=1;align=center;verticalAlign=middle;resizable=0;points=[];" parent="DmtLt5xf5tyt0vWxurnO-42" vertex="1" connectable="0">
          <mxGeometry x="0.0738" y="3" relative="1" as="geometry">
            <mxPoint as="offset" />
          </mxGeometry>
        </mxCell>
        <mxCell id="DmtLt5xf5tyt0vWxurnO-43" style="edgeStyle=orthogonalEdgeStyle;rounded=0;orthogonalLoop=1;jettySize=auto;html=1;dashed=1;strokeColor=default;align=center;verticalAlign=middle;fontFamily=Helvetica;fontSize=11;fontColor=default;labelBackgroundColor=default;endArrow=open;endFill=0;" parent="1" source="DmtLt5xf5tyt0vWxurnO-23" target="DmtLt5xf5tyt0vWxurnO-17" edge="1">
          <mxGeometry relative="1" as="geometry" />
        </mxCell>
        <mxCell id="DmtLt5xf5tyt0vWxurnO-98" value="&amp;lt;&amp;lt;extend&amp;gt;&amp;gt;" style="edgeLabel;html=1;align=center;verticalAlign=middle;resizable=0;points=[];" parent="DmtLt5xf5tyt0vWxurnO-43" vertex="1" connectable="0">
          <mxGeometry x="-0.16" y="2" relative="1" as="geometry">
            <mxPoint as="offset" />
          </mxGeometry>
        </mxCell>
        <mxCell id="DmtLt5xf5tyt0vWxurnO-44" style="edgeStyle=orthogonalEdgeStyle;rounded=0;orthogonalLoop=1;jettySize=auto;html=1;dashed=1;strokeColor=default;align=center;verticalAlign=middle;fontFamily=Helvetica;fontSize=11;fontColor=default;labelBackgroundColor=default;endArrow=open;endFill=0;" parent="1" source="DmtLt5xf5tyt0vWxurnO-24" target="DmtLt5xf5tyt0vWxurnO-17" edge="1">
          <mxGeometry relative="1" as="geometry">
            <Array as="points">
              <mxPoint x="245" y="475" />
            </Array>
          </mxGeometry>
        </mxCell>
        <mxCell id="DmtLt5xf5tyt0vWxurnO-99" value="&amp;lt;&amp;lt;extend&amp;gt;&amp;gt;" style="edgeLabel;html=1;align=center;verticalAlign=middle;resizable=0;points=[];" parent="DmtLt5xf5tyt0vWxurnO-44" vertex="1" connectable="0">
          <mxGeometry x="0.1815" relative="1" as="geometry">
            <mxPoint as="offset" />
          </mxGeometry>
        </mxCell>
        <mxCell id="DmtLt5xf5tyt0vWxurnO-17" value="志愿服务" style="ellipse;whiteSpace=wrap;html=1;" parent="1" vertex="1">
          <mxGeometry x="200" y="390" width="90" height="50" as="geometry" />
        </mxCell>
        <mxCell id="DmtLt5xf5tyt0vWxurnO-18" value="发布帖子" style="ellipse;whiteSpace=wrap;html=1;" parent="1" vertex="1">
          <mxGeometry x="470" y="190" width="90" height="50" as="geometry" />
        </mxCell>
        <mxCell id="DmtLt5xf5tyt0vWxurnO-20" value="发布评论" style="ellipse;whiteSpace=wrap;html=1;" parent="1" vertex="1">
          <mxGeometry x="470" y="250" width="90" height="50" as="geometry" />
        </mxCell>
        <mxCell id="DmtLt5xf5tyt0vWxurnO-23" value="领养申请" style="ellipse;whiteSpace=wrap;html=1;" parent="1" vertex="1">
          <mxGeometry x="470" y="390" width="90" height="50" as="geometry" />
        </mxCell>
        <mxCell id="DmtLt5xf5tyt0vWxurnO-24" value="参与救助" style="ellipse;whiteSpace=wrap;html=1;" parent="1" vertex="1">
          <mxGeometry x="470" y="450" width="90" height="50" as="geometry" />
        </mxCell>
        <mxCell id="DmtLt5xf5tyt0vWxurnO-25" value="编辑用户信息" style="ellipse;whiteSpace=wrap;html=1;" parent="1" vertex="1">
          <mxGeometry x="210" y="515" width="90" height="50" as="geometry" />
        </mxCell>
        <mxCell id="DmtLt5xf5tyt0vWxurnO-26" value="修改密码" style="ellipse;whiteSpace=wrap;html=1;" parent="1" vertex="1">
          <mxGeometry x="320" y="585" width="90" height="50" as="geometry" />
        </mxCell>
        <mxCell id="DmtLt5xf5tyt0vWxurnO-27" value="关注用户" style="ellipse;whiteSpace=wrap;html=1;" parent="1" vertex="1">
          <mxGeometry x="450" y="550" width="90" height="50" as="geometry" />
        </mxCell>
        <mxCell id="DmtLt5xf5tyt0vWxurnO-28" value="系统管理" style="ellipse;whiteSpace=wrap;html=1;" parent="1" vertex="1">
          <mxGeometry x="210" y="690" width="90" height="50" as="geometry" />
        </mxCell>
        <mxCell id="DmtLt5xf5tyt0vWxurnO-29" value="管理论坛信息" style="ellipse;whiteSpace=wrap;html=1;" parent="1" vertex="1">
          <mxGeometry x="470" y="650" width="90" height="50" as="geometry" />
        </mxCell>
        <mxCell id="DmtLt5xf5tyt0vWxurnO-30" value="管理用户信息" style="ellipse;whiteSpace=wrap;html=1;" parent="1" vertex="1">
          <mxGeometry x="470" y="710" width="90" height="50" as="geometry" />
        </mxCell>
        <mxCell id="DmtLt5xf5tyt0vWxurnO-31" value="管理动物信息" style="ellipse;whiteSpace=wrap;html=1;" parent="1" vertex="1">
          <mxGeometry x="470" y="770" width="90" height="50" as="geometry" />
        </mxCell>
        <mxCell id="DmtLt5xf5tyt0vWxurnO-53" value="用户" style="shape=umlActor;verticalLabelPosition=bottom;verticalAlign=top;html=1;outlineConnect=0;" parent="1" vertex="1">
          <mxGeometry x="10" y="260" width="70" height="115" as="geometry" />
        </mxCell>
        <mxCell id="DmtLt5xf5tyt0vWxurnO-60" value="" style="endArrow=open;html=1;rounded=0;endFill=0;" parent="1" source="DmtLt5xf5tyt0vWxurnO-53" edge="1">
          <mxGeometry width="50" height="50" relative="1" as="geometry">
            <mxPoint x="100" y="300" as="sourcePoint" />
            <mxPoint x="190" y="230" as="targetPoint" />
          </mxGeometry>
        </mxCell>
        <mxCell id="DmtLt5xf5tyt0vWxurnO-61" value="" style="endArrow=open;html=1;rounded=0;dashed=1;endFill=0;" parent="1" edge="1">
          <mxGeometry width="50" height="50" relative="1" as="geometry">
            <mxPoint x="270" y="150" as="sourcePoint" />
            <mxPoint x="260" y="190" as="targetPoint" />
          </mxGeometry>
        </mxCell>
        <mxCell id="DmtLt5xf5tyt0vWxurnO-88" value="&amp;lt;&amp;lt;extend&amp;gt;&amp;gt;" style="edgeLabel;html=1;align=center;verticalAlign=middle;resizable=0;points=[];" parent="DmtLt5xf5tyt0vWxurnO-61" vertex="1" connectable="0">
          <mxGeometry x="-0.08" y="-1" relative="1" as="geometry">
            <mxPoint as="offset" />
          </mxGeometry>
        </mxCell>
        <mxCell id="DmtLt5xf5tyt0vWxurnO-62" value="" style="endArrow=open;html=1;rounded=0;dashed=1;strokeColor=default;align=center;verticalAlign=middle;fontFamily=Helvetica;fontSize=11;fontColor=default;labelBackgroundColor=default;endFill=0;" parent="1" edge="1">
          <mxGeometry width="50" height="50" relative="1" as="geometry">
            <mxPoint x="390" y="150" as="sourcePoint" />
            <mxPoint x="310" y="190" as="targetPoint" />
          </mxGeometry>
        </mxCell>
        <mxCell id="DmtLt5xf5tyt0vWxurnO-89" value="&amp;lt;&amp;lt;extend&amp;gt;&amp;gt;" style="edgeLabel;html=1;align=center;verticalAlign=middle;resizable=0;points=[];" parent="DmtLt5xf5tyt0vWxurnO-62" vertex="1" connectable="0">
          <mxGeometry x="-0.08" y="-1" relative="1" as="geometry">
            <mxPoint as="offset" />
          </mxGeometry>
        </mxCell>
        <mxCell id="DmtLt5xf5tyt0vWxurnO-63" value="" style="endArrow=open;html=1;rounded=0;dashed=1;strokeColor=default;align=center;verticalAlign=middle;fontFamily=Helvetica;fontSize=11;fontColor=default;labelBackgroundColor=default;endFill=0;" parent="1" edge="1">
          <mxGeometry width="50" height="50" relative="1" as="geometry">
            <mxPoint x="500" y="140" as="sourcePoint" />
            <mxPoint x="320" y="210" as="targetPoint" />
          </mxGeometry>
        </mxCell>
        <mxCell id="DmtLt5xf5tyt0vWxurnO-90" value="&amp;lt;&amp;lt;extend&amp;gt;&amp;gt;" style="edgeLabel;html=1;align=center;verticalAlign=middle;resizable=0;points=[];" parent="DmtLt5xf5tyt0vWxurnO-63" vertex="1" connectable="0">
          <mxGeometry x="-0.1166" relative="1" as="geometry">
            <mxPoint as="offset" />
          </mxGeometry>
        </mxCell>
        <mxCell id="DmtLt5xf5tyt0vWxurnO-64" value="" style="endArrow=open;html=1;rounded=0;dashed=1;strokeColor=default;align=center;verticalAlign=middle;fontFamily=Helvetica;fontSize=11;fontColor=default;labelBackgroundColor=default;endFill=0;" parent="1" edge="1">
          <mxGeometry width="50" height="50" relative="1" as="geometry">
            <mxPoint x="460" y="210" as="sourcePoint" />
            <mxPoint x="310" y="240" as="targetPoint" />
          </mxGeometry>
        </mxCell>
        <mxCell id="DmtLt5xf5tyt0vWxurnO-91" value="&amp;lt;&amp;lt;extend&amp;gt;&amp;gt;" style="edgeLabel;html=1;align=center;verticalAlign=middle;resizable=0;points=[];" parent="DmtLt5xf5tyt0vWxurnO-64" vertex="1" connectable="0">
          <mxGeometry x="-0.3226" y="2" relative="1" as="geometry">
            <mxPoint as="offset" />
          </mxGeometry>
        </mxCell>
        <mxCell id="DmtLt5xf5tyt0vWxurnO-65" value="" style="endArrow=open;html=1;rounded=0;dashed=1;strokeColor=default;align=center;verticalAlign=middle;fontFamily=Helvetica;fontSize=11;fontColor=default;labelBackgroundColor=default;endFill=0;" parent="1" edge="1">
          <mxGeometry width="50" height="50" relative="1" as="geometry">
            <mxPoint x="450" y="270" as="sourcePoint" />
            <mxPoint x="280" y="260" as="targetPoint" />
          </mxGeometry>
        </mxCell>
        <mxCell id="DmtLt5xf5tyt0vWxurnO-92" value="&amp;lt;&amp;lt;extend&amp;gt;&amp;gt;" style="edgeLabel;html=1;align=center;verticalAlign=middle;resizable=0;points=[];" parent="DmtLt5xf5tyt0vWxurnO-65" vertex="1" connectable="0">
          <mxGeometry x="-0.2313" y="1" relative="1" as="geometry">
            <mxPoint as="offset" />
          </mxGeometry>
        </mxCell>
        <mxCell id="DmtLt5xf5tyt0vWxurnO-67" value="" style="edgeStyle=none;orthogonalLoop=1;jettySize=auto;html=1;rounded=0;dashed=1;strokeColor=default;align=center;verticalAlign=middle;fontFamily=Helvetica;fontSize=11;fontColor=default;labelBackgroundColor=default;endArrow=open;endFill=0;" parent="1" edge="1">
          <mxGeometry width="100" relative="1" as="geometry">
            <mxPoint x="580" y="224.5" as="sourcePoint" />
            <mxPoint x="700" y="270" as="targetPoint" />
            <Array as="points" />
          </mxGeometry>
        </mxCell>
        <mxCell id="DmtLt5xf5tyt0vWxurnO-95" value="&amp;lt;&amp;lt;include&amp;gt;&amp;gt;" style="edgeLabel;html=1;align=center;verticalAlign=middle;resizable=0;points=[];" parent="DmtLt5xf5tyt0vWxurnO-67" vertex="1" connectable="0">
          <mxGeometry x="-0.3161" y="-1" relative="1" as="geometry">
            <mxPoint as="offset" />
          </mxGeometry>
        </mxCell>
        <mxCell id="DmtLt5xf5tyt0vWxurnO-68" value="" style="edgeStyle=none;orthogonalLoop=1;jettySize=auto;html=1;rounded=0;dashed=1;strokeColor=default;align=center;verticalAlign=middle;fontFamily=Helvetica;fontSize=11;fontColor=default;labelBackgroundColor=default;endArrow=open;endFill=0;" parent="1" edge="1">
          <mxGeometry width="100" relative="1" as="geometry">
            <mxPoint x="570" y="284.5" as="sourcePoint" />
            <mxPoint x="700" y="320" as="targetPoint" />
            <Array as="points" />
          </mxGeometry>
        </mxCell>
        <mxCell id="DmtLt5xf5tyt0vWxurnO-96" value="&amp;lt;&amp;lt;include&amp;gt;&amp;gt;" style="edgeLabel;html=1;align=center;verticalAlign=middle;resizable=0;points=[];" parent="DmtLt5xf5tyt0vWxurnO-68" vertex="1" connectable="0">
          <mxGeometry x="-0.1751" relative="1" as="geometry">
            <mxPoint as="offset" />
          </mxGeometry>
        </mxCell>
        <mxCell id="DmtLt5xf5tyt0vWxurnO-69" value="" style="edgeStyle=none;orthogonalLoop=1;jettySize=auto;html=1;rounded=0;strokeColor=default;align=center;verticalAlign=middle;fontFamily=Helvetica;fontSize=11;fontColor=default;labelBackgroundColor=default;endArrow=open;endFill=0;" parent="1" source="DmtLt5xf5tyt0vWxurnO-53" edge="1">
          <mxGeometry width="100" relative="1" as="geometry">
            <mxPoint x="100" y="360" as="sourcePoint" />
            <mxPoint x="180" y="390" as="targetPoint" />
            <Array as="points" />
          </mxGeometry>
        </mxCell>
        <mxCell id="DmtLt5xf5tyt0vWxurnO-70" value="" style="edgeStyle=none;orthogonalLoop=1;jettySize=auto;html=1;rounded=0;dashed=1;strokeColor=default;align=center;verticalAlign=middle;fontFamily=Helvetica;fontSize=11;fontColor=default;labelBackgroundColor=default;endArrow=open;endFill=0;" parent="1" edge="1">
          <mxGeometry width="100" relative="1" as="geometry">
            <mxPoint x="580" y="360" as="sourcePoint" />
            <mxPoint x="680" y="360" as="targetPoint" />
            <Array as="points" />
          </mxGeometry>
        </mxCell>
        <mxCell id="DmtLt5xf5tyt0vWxurnO-100" value="&amp;lt;&amp;lt;include&amp;gt;&amp;gt;" style="edgeLabel;html=1;align=center;verticalAlign=middle;resizable=0;points=[];" parent="DmtLt5xf5tyt0vWxurnO-70" vertex="1" connectable="0">
          <mxGeometry x="-0.088" y="-2" relative="1" as="geometry">
            <mxPoint as="offset" />
          </mxGeometry>
        </mxCell>
        <mxCell id="DmtLt5xf5tyt0vWxurnO-72" value="" style="edgeStyle=none;orthogonalLoop=1;jettySize=auto;html=1;rounded=0;dashed=1;strokeColor=default;align=center;verticalAlign=middle;fontFamily=Helvetica;fontSize=11;fontColor=default;labelBackgroundColor=default;endArrow=open;endFill=0;" parent="1" edge="1">
          <mxGeometry width="100" relative="1" as="geometry">
            <mxPoint x="580" y="420" as="sourcePoint" />
            <mxPoint x="690" y="390" as="targetPoint" />
            <Array as="points" />
          </mxGeometry>
        </mxCell>
        <mxCell id="DmtLt5xf5tyt0vWxurnO-102" value="&amp;lt;&amp;lt;include&amp;gt;&amp;gt;" style="edgeLabel;html=1;align=center;verticalAlign=middle;resizable=0;points=[];" parent="DmtLt5xf5tyt0vWxurnO-72" vertex="1" connectable="0">
          <mxGeometry x="-0.2277" y="3" relative="1" as="geometry">
            <mxPoint as="offset" />
          </mxGeometry>
        </mxCell>
        <mxCell id="DmtLt5xf5tyt0vWxurnO-73" value="" style="edgeStyle=none;orthogonalLoop=1;jettySize=auto;html=1;rounded=0;dashed=1;strokeColor=default;align=center;verticalAlign=middle;fontFamily=Helvetica;fontSize=11;fontColor=default;labelBackgroundColor=default;endArrow=open;endFill=0;" parent="1" edge="1">
          <mxGeometry width="100" relative="1" as="geometry">
            <mxPoint x="580" y="474.5" as="sourcePoint" />
            <mxPoint x="690" y="430" as="targetPoint" />
            <Array as="points" />
          </mxGeometry>
        </mxCell>
        <mxCell id="DmtLt5xf5tyt0vWxurnO-103" value="&amp;lt;&amp;lt;include&amp;gt;&amp;gt;" style="edgeLabel;html=1;align=center;verticalAlign=middle;resizable=0;points=[];" parent="DmtLt5xf5tyt0vWxurnO-73" vertex="1" connectable="0">
          <mxGeometry x="-0.1343" relative="1" as="geometry">
            <mxPoint as="offset" />
          </mxGeometry>
        </mxCell>
        <mxCell id="DmtLt5xf5tyt0vWxurnO-74" value="" style="edgeStyle=none;orthogonalLoop=1;jettySize=auto;html=1;rounded=0;strokeColor=default;align=center;verticalAlign=middle;fontFamily=Helvetica;fontSize=11;fontColor=default;labelBackgroundColor=default;endArrow=open;endFill=0;" parent="1" source="DmtLt5xf5tyt0vWxurnO-53" edge="1">
          <mxGeometry width="100" relative="1" as="geometry">
            <mxPoint x="100" y="390" as="sourcePoint" />
            <mxPoint x="190" y="510" as="targetPoint" />
            <Array as="points" />
          </mxGeometry>
        </mxCell>
        <mxCell id="DmtLt5xf5tyt0vWxurnO-75" value="" style="endArrow=open;html=1;rounded=0;dashed=1;strokeColor=default;align=center;verticalAlign=middle;fontFamily=Helvetica;fontSize=11;fontColor=default;labelBackgroundColor=default;endFill=0;entryX=0.913;entryY=0.506;entryDx=0;entryDy=0;entryPerimeter=0;" parent="1" target="DmtLt5xf5tyt0vWxurnO-87" edge="1">
          <mxGeometry width="50" height="50" relative="1" as="geometry">
            <mxPoint x="330" y="530" as="sourcePoint" />
            <mxPoint x="760" y="470" as="targetPoint" />
            <Array as="points">
              <mxPoint x="760" y="530" />
            </Array>
          </mxGeometry>
        </mxCell>
        <mxCell id="DmtLt5xf5tyt0vWxurnO-104" value="&amp;lt;&amp;lt;include&amp;gt;&amp;gt;" style="edgeLabel;html=1;align=center;verticalAlign=middle;resizable=0;points=[];" parent="DmtLt5xf5tyt0vWxurnO-75" vertex="1" connectable="0">
          <mxGeometry x="0.1412" y="1" relative="1" as="geometry">
            <mxPoint as="offset" />
          </mxGeometry>
        </mxCell>
        <mxCell id="DmtLt5xf5tyt0vWxurnO-76" value="" style="endArrow=open;html=1;rounded=0;dashed=1;strokeColor=default;align=center;verticalAlign=middle;fontFamily=Helvetica;fontSize=11;fontColor=default;labelBackgroundColor=default;endFill=0;" parent="1" edge="1">
          <mxGeometry width="50" height="50" relative="1" as="geometry">
            <mxPoint x="430" y="570" as="sourcePoint" />
            <mxPoint x="320" y="560" as="targetPoint" />
          </mxGeometry>
        </mxCell>
        <mxCell id="DmtLt5xf5tyt0vWxurnO-93" value="&amp;lt;&amp;lt;extend&amp;gt;&amp;gt;" style="edgeLabel;html=1;align=center;verticalAlign=middle;resizable=0;points=[];" parent="DmtLt5xf5tyt0vWxurnO-76" vertex="1" connectable="0">
          <mxGeometry x="-0.1407" y="2" relative="1" as="geometry">
            <mxPoint y="-1" as="offset" />
          </mxGeometry>
        </mxCell>
        <mxCell id="DmtLt5xf5tyt0vWxurnO-78" value="" style="endArrow=open;html=1;rounded=0;dashed=1;strokeColor=default;align=center;verticalAlign=middle;fontFamily=Helvetica;fontSize=11;fontColor=default;labelBackgroundColor=default;endFill=0;" parent="1" edge="1">
          <mxGeometry width="50" height="50" relative="1" as="geometry">
            <mxPoint x="310" y="600" as="sourcePoint" />
            <mxPoint x="270" y="570" as="targetPoint" />
          </mxGeometry>
        </mxCell>
        <mxCell id="DmtLt5xf5tyt0vWxurnO-94" value="&amp;lt;&amp;lt;extend&amp;gt;&amp;gt;" style="edgeLabel;html=1;align=center;verticalAlign=middle;resizable=0;points=[];" parent="DmtLt5xf5tyt0vWxurnO-78" vertex="1" connectable="0">
          <mxGeometry x="0.088" y="-1" relative="1" as="geometry">
            <mxPoint as="offset" />
          </mxGeometry>
        </mxCell>
        <mxCell id="DmtLt5xf5tyt0vWxurnO-80" value="" style="edgeStyle=none;orthogonalLoop=1;jettySize=auto;html=1;rounded=0;dashed=1;strokeColor=default;align=center;verticalAlign=middle;fontFamily=Helvetica;fontSize=11;fontColor=default;labelBackgroundColor=default;endArrow=open;endFill=0;" parent="1" edge="1">
          <mxGeometry width="100" relative="1" as="geometry">
            <mxPoint x="590" y="674.5" as="sourcePoint" />
            <mxPoint x="700" y="700" as="targetPoint" />
            <Array as="points" />
          </mxGeometry>
        </mxCell>
        <mxCell id="DmtLt5xf5tyt0vWxurnO-108" value="&amp;lt;&amp;lt;include&amp;gt;&amp;gt;" style="edgeLabel;html=1;align=center;verticalAlign=middle;resizable=0;points=[];" parent="DmtLt5xf5tyt0vWxurnO-80" vertex="1" connectable="0">
          <mxGeometry x="-0.2872" y="-3" relative="1" as="geometry">
            <mxPoint as="offset" />
          </mxGeometry>
        </mxCell>
        <mxCell id="DmtLt5xf5tyt0vWxurnO-81" value="" style="edgeStyle=none;orthogonalLoop=1;jettySize=auto;html=1;rounded=0;dashed=1;strokeColor=default;align=center;verticalAlign=middle;fontFamily=Helvetica;fontSize=11;fontColor=default;labelBackgroundColor=default;endArrow=open;endFill=0;" parent="1" edge="1">
          <mxGeometry width="100" relative="1" as="geometry">
            <mxPoint x="590" y="734.5" as="sourcePoint" />
            <mxPoint x="690" y="734.5" as="targetPoint" />
            <Array as="points" />
          </mxGeometry>
        </mxCell>
        <mxCell id="DmtLt5xf5tyt0vWxurnO-109" value="&amp;lt;&amp;lt;include&amp;gt;&amp;gt;" style="edgeLabel;html=1;align=center;verticalAlign=middle;resizable=0;points=[];" parent="DmtLt5xf5tyt0vWxurnO-81" vertex="1" connectable="0">
          <mxGeometry x="-0.188" y="-2" relative="1" as="geometry">
            <mxPoint as="offset" />
          </mxGeometry>
        </mxCell>
        <mxCell id="DmtLt5xf5tyt0vWxurnO-82" value="" style="edgeStyle=none;orthogonalLoop=1;jettySize=auto;html=1;rounded=0;dashed=1;strokeColor=default;align=center;verticalAlign=middle;fontFamily=Helvetica;fontSize=11;fontColor=default;labelBackgroundColor=default;endArrow=open;endFill=0;" parent="1" edge="1">
          <mxGeometry width="100" relative="1" as="geometry">
            <mxPoint x="590" y="800" as="sourcePoint" />
            <mxPoint x="700" y="760" as="targetPoint" />
            <Array as="points" />
          </mxGeometry>
        </mxCell>
        <mxCell id="DmtLt5xf5tyt0vWxurnO-110" value="&amp;lt;&amp;lt;include&amp;gt;&amp;gt;" style="edgeLabel;html=1;align=center;verticalAlign=middle;resizable=0;points=[];" parent="DmtLt5xf5tyt0vWxurnO-82" vertex="1" connectable="0">
          <mxGeometry x="-0.1112" y="-2" relative="1" as="geometry">
            <mxPoint as="offset" />
          </mxGeometry>
        </mxCell>
        <mxCell id="DmtLt5xf5tyt0vWxurnO-83" value="" style="edgeStyle=none;orthogonalLoop=1;jettySize=auto;html=1;rounded=0;dashed=1;strokeColor=default;align=center;verticalAlign=middle;fontFamily=Helvetica;fontSize=11;fontColor=default;labelBackgroundColor=default;endArrow=open;endFill=0;" parent="1" edge="1" target="DmtLt5xf5tyt0vWxurnO-28" source="DmtLt5xf5tyt0vWxurnO-29">
          <mxGeometry width="100" relative="1" as="geometry">
            <mxPoint x="550" y="870" as="sourcePoint" />
            <mxPoint x="460" y="680" as="targetPoint" />
            <Array as="points" />
          </mxGeometry>
        </mxCell>
        <mxCell id="DmtLt5xf5tyt0vWxurnO-105" value="&amp;lt;&amp;lt;extend&amp;gt;&amp;gt;" style="edgeLabel;html=1;align=center;verticalAlign=middle;resizable=0;points=[];" parent="DmtLt5xf5tyt0vWxurnO-83" vertex="1" connectable="0">
          <mxGeometry x="0.0379" y="1" relative="1" as="geometry">
            <mxPoint as="offset" />
          </mxGeometry>
        </mxCell>
        <mxCell id="DmtLt5xf5tyt0vWxurnO-84" value="" style="edgeStyle=none;orthogonalLoop=1;jettySize=auto;html=1;rounded=0;dashed=1;strokeColor=default;align=center;verticalAlign=middle;fontFamily=Helvetica;fontSize=11;fontColor=default;labelBackgroundColor=default;endArrow=open;endFill=0;" parent="1" edge="1" target="DmtLt5xf5tyt0vWxurnO-28" source="DmtLt5xf5tyt0vWxurnO-30">
          <mxGeometry width="100" relative="1" as="geometry">
            <mxPoint x="315" y="724.5" as="sourcePoint" />
            <mxPoint x="450" y="730" as="targetPoint" />
            <Array as="points" />
          </mxGeometry>
        </mxCell>
        <mxCell id="DmtLt5xf5tyt0vWxurnO-106" value="&amp;lt;&amp;lt;extend&amp;gt;&amp;gt;" style="edgeLabel;html=1;align=center;verticalAlign=middle;resizable=0;points=[];" parent="DmtLt5xf5tyt0vWxurnO-84" vertex="1" connectable="0">
          <mxGeometry x="0.1358" y="-2" relative="1" as="geometry">
            <mxPoint as="offset" />
          </mxGeometry>
        </mxCell>
        <mxCell id="DmtLt5xf5tyt0vWxurnO-85" value="" style="edgeStyle=none;orthogonalLoop=1;jettySize=auto;html=1;rounded=0;dashed=1;strokeColor=default;align=center;verticalAlign=middle;fontFamily=Helvetica;fontSize=11;fontColor=default;labelBackgroundColor=default;endArrow=open;endFill=0;" parent="1" edge="1" target="DmtLt5xf5tyt0vWxurnO-28" source="DmtLt5xf5tyt0vWxurnO-31">
          <mxGeometry width="100" relative="1" as="geometry">
            <mxPoint x="310" y="750" as="sourcePoint" />
            <mxPoint x="450" y="790" as="targetPoint" />
            <Array as="points" />
          </mxGeometry>
        </mxCell>
        <mxCell id="DmtLt5xf5tyt0vWxurnO-107" value="&amp;lt;&amp;lt;extend&amp;gt;&amp;gt;" style="edgeLabel;html=1;align=center;verticalAlign=middle;resizable=0;points=[];" parent="DmtLt5xf5tyt0vWxurnO-85" vertex="1" connectable="0">
          <mxGeometry x="0.0521" relative="1" as="geometry">
            <mxPoint as="offset" />
          </mxGeometry>
        </mxCell>
        <mxCell id="DmtLt5xf5tyt0vWxurnO-86" value="" style="edgeStyle=none;orthogonalLoop=1;jettySize=auto;html=1;rounded=0;strokeColor=default;align=center;verticalAlign=middle;fontFamily=Helvetica;fontSize=11;fontColor=default;labelBackgroundColor=default;endArrow=open;endFill=0;" parent="1" source="DmtLt5xf5tyt0vWxurnO-2" edge="1">
          <mxGeometry width="100" relative="1" as="geometry">
            <mxPoint x="110" y="640" as="sourcePoint" />
            <mxPoint x="190" y="700" as="targetPoint" />
            <Array as="points" />
          </mxGeometry>
        </mxCell>
        <mxCell id="gBtnJPxGFzo9BNJ1tIfL-1" value="流浪动物救助平台" style="rounded=0;whiteSpace=wrap;html=1;align=center;verticalAlign=top;fontSize=21;fontStyle=1" parent="1" vertex="1">
          <mxGeometry x="125" y="1430" width="575" height="810" as="geometry" />
        </mxCell>
        <mxCell id="gBtnJPxGFzo9BNJ1tIfL-3" value="管理员" style="shape=umlActor;verticalLabelPosition=bottom;verticalAlign=top;html=1;outlineConnect=0;" parent="1" vertex="1">
          <mxGeometry x="725" y="1920" width="80" height="135" as="geometry" />
        </mxCell>
        <mxCell id="gBtnJPxGFzo9BNJ1tIfL-29" value="用户" style="shape=umlActor;verticalLabelPosition=bottom;verticalAlign=top;html=1;outlineConnect=0;" parent="1" vertex="1">
          <mxGeometry x="5" y="1670" width="70" height="115" as="geometry" />
        </mxCell>
        <mxCell id="gBtnJPxGFzo9BNJ1tIfL-30" value="" style="endArrow=open;html=1;rounded=0;endFill=0;" parent="1" source="gBtnJPxGFzo9BNJ1tIfL-29" target="gBtnJPxGFzo9BNJ1tIfL-72" edge="1">
          <mxGeometry width="50" height="50" relative="1" as="geometry">
            <mxPoint x="95" y="1710" as="sourcePoint" />
            <mxPoint x="185" y="1640" as="targetPoint" />
          </mxGeometry>
        </mxCell>
        <mxCell id="gBtnJPxGFzo9BNJ1tIfL-72" value="用户登录" style="ellipse;whiteSpace=wrap;html=1;" parent="1" vertex="1">
          <mxGeometry x="220" y="1500" width="80" height="40" as="geometry" />
        </mxCell>
        <mxCell id="gBtnJPxGFzo9BNJ1tIfL-73" value="忘记密码" style="ellipse;whiteSpace=wrap;html=1;" parent="1" vertex="1">
          <mxGeometry x="390" y="1470" width="80" height="40" as="geometry" />
        </mxCell>
        <mxCell id="gBtnJPxGFzo9BNJ1tIfL-74" value="用户注册" style="ellipse;whiteSpace=wrap;html=1;" parent="1" vertex="1">
          <mxGeometry x="410" y="1530" width="80" height="40" as="geometry" />
        </mxCell>
        <mxCell id="gBtnJPxGFzo9BNJ1tIfL-76" value="访问论坛" style="ellipse;whiteSpace=wrap;html=1;" parent="1" vertex="1">
          <mxGeometry x="220" y="1610" width="80" height="40" as="geometry" />
        </mxCell>
        <mxCell id="gBtnJPxGFzo9BNJ1tIfL-77" value="访问动物主页" style="ellipse;whiteSpace=wrap;html=1;" parent="1" vertex="1">
          <mxGeometry x="460" y="1690" width="80" height="40" as="geometry" />
        </mxCell>
        <mxCell id="gBtnJPxGFzo9BNJ1tIfL-78" value="访问用户主页" style="ellipse;whiteSpace=wrap;html=1;" parent="1" vertex="1">
          <mxGeometry x="470" y="1754" width="80" height="40" as="geometry" />
        </mxCell>
        <mxCell id="gBtnJPxGFzo9BNJ1tIfL-79" value="关注" style="ellipse;whiteSpace=wrap;html=1;" parent="1" vertex="1">
          <mxGeometry x="350" y="1780" width="80" height="40" as="geometry" />
        </mxCell>
        <mxCell id="gBtnJPxGFzo9BNJ1tIfL-81" value="管理账户" style="ellipse;whiteSpace=wrap;html=1;" parent="1" vertex="1">
          <mxGeometry x="220" y="1830" width="80" height="40" as="geometry" />
        </mxCell>
        <mxCell id="gBtnJPxGFzo9BNJ1tIfL-82" value="志愿者服务" style="ellipse;whiteSpace=wrap;html=1;" parent="1" vertex="1">
          <mxGeometry x="215" y="1910" width="80" height="40" as="geometry" />
        </mxCell>
        <mxCell id="gBtnJPxGFzo9BNJ1tIfL-83" value="编辑用户信息" style="ellipse;whiteSpace=wrap;html=1;" parent="1" vertex="1">
          <mxGeometry x="520" y="1800" width="80" height="40" as="geometry" />
        </mxCell>
        <mxCell id="gBtnJPxGFzo9BNJ1tIfL-84" value="修改密码" style="ellipse;whiteSpace=wrap;html=1;" parent="1" vertex="1">
          <mxGeometry x="520" y="1850" width="80" height="40" as="geometry" />
        </mxCell>
        <mxCell id="gBtnJPxGFzo9BNJ1tIfL-85" value="投喂动物" style="ellipse;whiteSpace=wrap;html=1;" parent="1" vertex="1">
          <mxGeometry x="400" y="1870" width="80" height="40" as="geometry" />
        </mxCell>
        <mxCell id="gBtnJPxGFzo9BNJ1tIfL-86" value="领养动物" style="ellipse;whiteSpace=wrap;html=1;" parent="1" vertex="1">
          <mxGeometry x="400" y="1920" width="80" height="40" as="geometry" />
        </mxCell>
        <mxCell id="gBtnJPxGFzo9BNJ1tIfL-87" value="参与救助" style="ellipse;whiteSpace=wrap;html=1;" parent="1" vertex="1">
          <mxGeometry x="400" y="1970" width="80" height="40" as="geometry" />
        </mxCell>
        <mxCell id="gBtnJPxGFzo9BNJ1tIfL-88" value="" style="endArrow=open;html=1;rounded=0;dashed=1;strokeColor=default;align=center;verticalAlign=middle;fontFamily=Helvetica;fontSize=11;fontColor=default;labelBackgroundColor=default;endFill=0;" parent="1" source="gBtnJPxGFzo9BNJ1tIfL-82" target="gBtnJPxGFzo9BNJ1tIfL-85" edge="1">
          <mxGeometry width="50" height="50" relative="1" as="geometry">
            <mxPoint x="260" y="1960" as="sourcePoint" />
            <mxPoint x="310" y="1910" as="targetPoint" />
          </mxGeometry>
        </mxCell>
        <mxCell id="gBtnJPxGFzo9BNJ1tIfL-134" value="&amp;lt;&amp;lt;include&amp;gt;&amp;gt;" style="edgeLabel;html=1;align=center;verticalAlign=middle;resizable=0;points=[];" parent="gBtnJPxGFzo9BNJ1tIfL-88" vertex="1" connectable="0">
          <mxGeometry x="-0.1199" y="2" relative="1" as="geometry">
            <mxPoint as="offset" />
          </mxGeometry>
        </mxCell>
        <mxCell id="gBtnJPxGFzo9BNJ1tIfL-89" value="" style="endArrow=open;html=1;rounded=0;dashed=1;strokeColor=default;align=center;verticalAlign=middle;fontFamily=Helvetica;fontSize=11;fontColor=default;labelBackgroundColor=default;endFill=0;" parent="1" source="gBtnJPxGFzo9BNJ1tIfL-82" target="gBtnJPxGFzo9BNJ1tIfL-86" edge="1">
          <mxGeometry width="50" height="50" relative="1" as="geometry">
            <mxPoint x="344" y="1887" as="sourcePoint" />
            <mxPoint x="309" y="1883" as="targetPoint" />
          </mxGeometry>
        </mxCell>
        <mxCell id="gBtnJPxGFzo9BNJ1tIfL-135" value="&amp;lt;&amp;lt;include&amp;gt;&amp;gt;" style="edgeLabel;html=1;align=center;verticalAlign=middle;resizable=0;points=[];" parent="gBtnJPxGFzo9BNJ1tIfL-89" vertex="1" connectable="0">
          <mxGeometry x="-0.0245" y="2" relative="1" as="geometry">
            <mxPoint y="1" as="offset" />
          </mxGeometry>
        </mxCell>
        <mxCell id="gBtnJPxGFzo9BNJ1tIfL-90" value="" style="endArrow=open;html=1;rounded=0;dashed=1;strokeColor=default;align=center;verticalAlign=middle;fontFamily=Helvetica;fontSize=11;fontColor=default;labelBackgroundColor=default;endFill=0;" parent="1" source="gBtnJPxGFzo9BNJ1tIfL-82" target="gBtnJPxGFzo9BNJ1tIfL-87" edge="1">
          <mxGeometry width="50" height="50" relative="1" as="geometry">
            <mxPoint x="354" y="1897" as="sourcePoint" />
            <mxPoint x="319" y="1893" as="targetPoint" />
          </mxGeometry>
        </mxCell>
        <mxCell id="gBtnJPxGFzo9BNJ1tIfL-136" value="&amp;lt;&amp;lt;include&amp;gt;&amp;gt;" style="edgeLabel;html=1;align=center;verticalAlign=middle;resizable=0;points=[];" parent="gBtnJPxGFzo9BNJ1tIfL-90" vertex="1" connectable="0">
          <mxGeometry x="-0.0437" y="-1" relative="1" as="geometry">
            <mxPoint as="offset" />
          </mxGeometry>
        </mxCell>
        <mxCell id="gBtnJPxGFzo9BNJ1tIfL-91" value="管理员登录" style="ellipse;whiteSpace=wrap;html=1;" parent="1" vertex="1">
          <mxGeometry x="500" y="2080" width="80" height="40" as="geometry" />
        </mxCell>
        <mxCell id="gBtnJPxGFzo9BNJ1tIfL-92" value="管理帖子信息" style="ellipse;whiteSpace=wrap;html=1;" parent="1" vertex="1">
          <mxGeometry x="235" y="2060" width="80" height="40" as="geometry" />
        </mxCell>
        <mxCell id="gBtnJPxGFzo9BNJ1tIfL-93" value="管理用户信息" style="ellipse;whiteSpace=wrap;html=1;" parent="1" vertex="1">
          <mxGeometry x="235" y="2120" width="80" height="40" as="geometry" />
        </mxCell>
        <mxCell id="gBtnJPxGFzo9BNJ1tIfL-94" value="管理动物信息" style="ellipse;whiteSpace=wrap;html=1;" parent="1" vertex="1">
          <mxGeometry x="235" y="2180" width="80" height="40" as="geometry" />
        </mxCell>
        <mxCell id="gBtnJPxGFzo9BNJ1tIfL-95" value="" style="endArrow=open;html=1;rounded=0;dashed=1;strokeColor=default;align=center;verticalAlign=middle;fontFamily=Helvetica;fontSize=11;fontColor=default;labelBackgroundColor=default;endFill=0;" parent="1" source="gBtnJPxGFzo9BNJ1tIfL-92" target="gBtnJPxGFzo9BNJ1tIfL-91" edge="1">
          <mxGeometry width="50" height="50" relative="1" as="geometry">
            <mxPoint x="440" y="2080" as="sourcePoint" />
            <mxPoint x="516" y="2120" as="targetPoint" />
          </mxGeometry>
        </mxCell>
        <mxCell id="gBtnJPxGFzo9BNJ1tIfL-138" value="&amp;lt;&amp;lt;extend&amp;gt;&amp;gt;" style="edgeLabel;html=1;align=center;verticalAlign=middle;resizable=0;points=[];" parent="gBtnJPxGFzo9BNJ1tIfL-95" vertex="1" connectable="0">
          <mxGeometry x="-0.313" y="-1" relative="1" as="geometry">
            <mxPoint as="offset" />
          </mxGeometry>
        </mxCell>
        <mxCell id="gBtnJPxGFzo9BNJ1tIfL-96" value="" style="endArrow=open;html=1;rounded=0;dashed=1;strokeColor=default;align=center;verticalAlign=middle;fontFamily=Helvetica;fontSize=11;fontColor=default;labelBackgroundColor=default;endFill=0;" parent="1" source="gBtnJPxGFzo9BNJ1tIfL-93" target="gBtnJPxGFzo9BNJ1tIfL-91" edge="1">
          <mxGeometry width="50" height="50" relative="1" as="geometry">
            <mxPoint x="430" y="2113" as="sourcePoint" />
            <mxPoint x="510" y="2147" as="targetPoint" />
          </mxGeometry>
        </mxCell>
        <mxCell id="gBtnJPxGFzo9BNJ1tIfL-139" value="&amp;lt;&amp;lt;extend&amp;gt;&amp;gt;" style="edgeLabel;html=1;align=center;verticalAlign=middle;resizable=0;points=[];" parent="gBtnJPxGFzo9BNJ1tIfL-96" vertex="1" connectable="0">
          <mxGeometry x="-0.3213" y="-2" relative="1" as="geometry">
            <mxPoint as="offset" />
          </mxGeometry>
        </mxCell>
        <mxCell id="gBtnJPxGFzo9BNJ1tIfL-97" value="" style="endArrow=open;html=1;rounded=0;dashed=1;strokeColor=default;align=center;verticalAlign=middle;fontFamily=Helvetica;fontSize=11;fontColor=default;labelBackgroundColor=default;endFill=0;" parent="1" source="gBtnJPxGFzo9BNJ1tIfL-94" target="gBtnJPxGFzo9BNJ1tIfL-91" edge="1">
          <mxGeometry width="50" height="50" relative="1" as="geometry">
            <mxPoint x="440" y="2123" as="sourcePoint" />
            <mxPoint x="520" y="2157" as="targetPoint" />
          </mxGeometry>
        </mxCell>
        <mxCell id="gBtnJPxGFzo9BNJ1tIfL-140" value="&amp;lt;&amp;lt;extend&amp;gt;&amp;gt;" style="edgeLabel;html=1;align=center;verticalAlign=middle;resizable=0;points=[];" parent="gBtnJPxGFzo9BNJ1tIfL-97" vertex="1" connectable="0">
          <mxGeometry x="-0.2214" y="-4" relative="1" as="geometry">
            <mxPoint as="offset" />
          </mxGeometry>
        </mxCell>
        <mxCell id="gBtnJPxGFzo9BNJ1tIfL-98" value="管理评论信息" style="ellipse;whiteSpace=wrap;html=1;" parent="1" vertex="1">
          <mxGeometry x="235" y="2010" width="80" height="40" as="geometry" />
        </mxCell>
        <mxCell id="gBtnJPxGFzo9BNJ1tIfL-100" value="" style="endArrow=open;html=1;rounded=0;dashed=1;strokeColor=default;align=center;verticalAlign=middle;fontFamily=Helvetica;fontSize=11;fontColor=default;labelBackgroundColor=default;endFill=0;" parent="1" source="gBtnJPxGFzo9BNJ1tIfL-98" target="gBtnJPxGFzo9BNJ1tIfL-91" edge="1">
          <mxGeometry width="50" height="50" relative="1" as="geometry">
            <mxPoint x="430" y="2113" as="sourcePoint" />
            <mxPoint x="510" y="2147" as="targetPoint" />
          </mxGeometry>
        </mxCell>
        <mxCell id="gBtnJPxGFzo9BNJ1tIfL-137" value="&amp;lt;&amp;lt;extend&amp;gt;&amp;gt;" style="edgeLabel;html=1;align=center;verticalAlign=middle;resizable=0;points=[];" parent="gBtnJPxGFzo9BNJ1tIfL-100" vertex="1" connectable="0">
          <mxGeometry x="-0.2165" y="1" relative="1" as="geometry">
            <mxPoint as="offset" />
          </mxGeometry>
        </mxCell>
        <mxCell id="gBtnJPxGFzo9BNJ1tIfL-101" value="" style="endArrow=open;html=1;rounded=0;endFill=0;strokeColor=default;align=center;verticalAlign=middle;fontFamily=Helvetica;fontSize=11;fontColor=default;labelBackgroundColor=default;" parent="1" source="gBtnJPxGFzo9BNJ1tIfL-3" target="gBtnJPxGFzo9BNJ1tIfL-91" edge="1">
          <mxGeometry width="50" height="50" relative="1" as="geometry">
            <mxPoint x="85" y="1704" as="sourcePoint" />
            <mxPoint x="251" y="1548" as="targetPoint" />
          </mxGeometry>
        </mxCell>
        <mxCell id="gBtnJPxGFzo9BNJ1tIfL-102" value="发布帖子" style="ellipse;whiteSpace=wrap;html=1;" parent="1" vertex="1">
          <mxGeometry x="340" y="1560" width="80" height="40" as="geometry" />
        </mxCell>
        <mxCell id="gBtnJPxGFzo9BNJ1tIfL-103" value="请求帮助" style="ellipse;whiteSpace=wrap;html=1;" parent="1" vertex="1">
          <mxGeometry x="420" y="1610" width="80" height="40" as="geometry" />
        </mxCell>
        <mxCell id="gBtnJPxGFzo9BNJ1tIfL-104" value="发表评论" style="ellipse;whiteSpace=wrap;html=1;" parent="1" vertex="1">
          <mxGeometry x="360" y="1660" width="80" height="40" as="geometry" />
        </mxCell>
        <mxCell id="gBtnJPxGFzo9BNJ1tIfL-107" value="" style="endArrow=open;html=1;rounded=0;dashed=1;strokeColor=default;align=center;verticalAlign=middle;fontFamily=Helvetica;fontSize=11;fontColor=default;labelBackgroundColor=default;endFill=0;" parent="1" source="gBtnJPxGFzo9BNJ1tIfL-102" target="gBtnJPxGFzo9BNJ1tIfL-76" edge="1">
          <mxGeometry width="50" height="50" relative="1" as="geometry">
            <mxPoint x="317" y="1728" as="sourcePoint" />
            <mxPoint x="357" y="1737" as="targetPoint" />
          </mxGeometry>
        </mxCell>
        <mxCell id="gBtnJPxGFzo9BNJ1tIfL-123" value="&amp;lt;&amp;lt;extend&amp;gt;&amp;gt;" style="edgeLabel;html=1;align=center;verticalAlign=middle;resizable=0;points=[];" parent="gBtnJPxGFzo9BNJ1tIfL-107" vertex="1" connectable="0">
          <mxGeometry x="-0.0439" y="-1" relative="1" as="geometry">
            <mxPoint as="offset" />
          </mxGeometry>
        </mxCell>
        <mxCell id="gBtnJPxGFzo9BNJ1tIfL-110" value="" style="endArrow=open;html=1;rounded=0;dashed=1;strokeColor=default;align=center;verticalAlign=middle;fontFamily=Helvetica;fontSize=11;fontColor=default;labelBackgroundColor=default;endFill=0;" parent="1" source="gBtnJPxGFzo9BNJ1tIfL-103" target="gBtnJPxGFzo9BNJ1tIfL-76" edge="1">
          <mxGeometry width="50" height="50" relative="1" as="geometry">
            <mxPoint x="351" y="1611" as="sourcePoint" />
            <mxPoint x="303" y="1628" as="targetPoint" />
          </mxGeometry>
        </mxCell>
        <mxCell id="gBtnJPxGFzo9BNJ1tIfL-124" value="&amp;lt;&amp;lt;extend&amp;gt;&amp;gt;" style="edgeLabel;html=1;align=center;verticalAlign=middle;resizable=0;points=[];" parent="gBtnJPxGFzo9BNJ1tIfL-110" vertex="1" connectable="0">
          <mxGeometry x="0.0972" relative="1" as="geometry">
            <mxPoint as="offset" />
          </mxGeometry>
        </mxCell>
        <mxCell id="gBtnJPxGFzo9BNJ1tIfL-111" value="" style="endArrow=open;html=1;rounded=0;dashed=1;strokeColor=default;align=center;verticalAlign=middle;fontFamily=Helvetica;fontSize=11;fontColor=default;labelBackgroundColor=default;endFill=0;" parent="1" source="gBtnJPxGFzo9BNJ1tIfL-104" target="gBtnJPxGFzo9BNJ1tIfL-76" edge="1">
          <mxGeometry width="50" height="50" relative="1" as="geometry">
            <mxPoint x="361" y="1621" as="sourcePoint" />
            <mxPoint x="313" y="1638" as="targetPoint" />
          </mxGeometry>
        </mxCell>
        <mxCell id="gBtnJPxGFzo9BNJ1tIfL-125" value="&amp;lt;&amp;lt;extend&amp;gt;&amp;gt;" style="edgeLabel;html=1;align=center;verticalAlign=middle;resizable=0;points=[];" parent="gBtnJPxGFzo9BNJ1tIfL-111" vertex="1" connectable="0">
          <mxGeometry x="0.1612" y="2" relative="1" as="geometry">
            <mxPoint as="offset" />
          </mxGeometry>
        </mxCell>
        <mxCell id="gBtnJPxGFzo9BNJ1tIfL-112" value="" style="endArrow=open;html=1;rounded=0;dashed=1;strokeColor=default;align=center;verticalAlign=middle;fontFamily=Helvetica;fontSize=11;fontColor=default;labelBackgroundColor=default;endFill=0;" parent="1" source="gBtnJPxGFzo9BNJ1tIfL-73" target="gBtnJPxGFzo9BNJ1tIfL-72" edge="1">
          <mxGeometry width="50" height="50" relative="1" as="geometry">
            <mxPoint x="371" y="1631" as="sourcePoint" />
            <mxPoint x="323" y="1648" as="targetPoint" />
          </mxGeometry>
        </mxCell>
        <mxCell id="gBtnJPxGFzo9BNJ1tIfL-121" value="&amp;lt;&amp;lt;extend&amp;gt;&amp;gt;" style="edgeLabel;html=1;align=center;verticalAlign=middle;resizable=0;points=[];" parent="gBtnJPxGFzo9BNJ1tIfL-112" vertex="1" connectable="0">
          <mxGeometry x="-0.1708" y="1" relative="1" as="geometry">
            <mxPoint as="offset" />
          </mxGeometry>
        </mxCell>
        <mxCell id="gBtnJPxGFzo9BNJ1tIfL-113" value="" style="endArrow=open;html=1;rounded=0;dashed=1;strokeColor=default;align=center;verticalAlign=middle;fontFamily=Helvetica;fontSize=11;fontColor=default;labelBackgroundColor=default;endFill=0;" parent="1" source="gBtnJPxGFzo9BNJ1tIfL-74" target="gBtnJPxGFzo9BNJ1tIfL-72" edge="1">
          <mxGeometry width="50" height="50" relative="1" as="geometry">
            <mxPoint x="339" y="1503" as="sourcePoint" />
            <mxPoint x="301" y="1518" as="targetPoint" />
          </mxGeometry>
        </mxCell>
        <mxCell id="gBtnJPxGFzo9BNJ1tIfL-122" value="&amp;lt;&amp;lt;extend&amp;gt;&amp;gt;" style="edgeLabel;html=1;align=center;verticalAlign=middle;resizable=0;points=[];" parent="gBtnJPxGFzo9BNJ1tIfL-113" vertex="1" connectable="0">
          <mxGeometry x="0.0839" y="1" relative="1" as="geometry">
            <mxPoint as="offset" />
          </mxGeometry>
        </mxCell>
        <mxCell id="gBtnJPxGFzo9BNJ1tIfL-114" value="" style="endArrow=open;html=1;rounded=0;dashed=1;strokeColor=default;align=center;verticalAlign=middle;fontFamily=Helvetica;fontSize=11;fontColor=default;labelBackgroundColor=default;endFill=0;" parent="1" source="gBtnJPxGFzo9BNJ1tIfL-81" target="gBtnJPxGFzo9BNJ1tIfL-83" edge="1">
          <mxGeometry width="50" height="50" relative="1" as="geometry">
            <mxPoint x="309" y="1714" as="sourcePoint" />
            <mxPoint x="421" y="1726" as="targetPoint" />
          </mxGeometry>
        </mxCell>
        <mxCell id="gBtnJPxGFzo9BNJ1tIfL-132" value="&amp;lt;&amp;lt;include&amp;gt;&amp;gt;" style="edgeLabel;html=1;align=center;verticalAlign=middle;resizable=0;points=[];" parent="gBtnJPxGFzo9BNJ1tIfL-114" vertex="1" connectable="0">
          <mxGeometry x="-0.0501" y="2" relative="1" as="geometry">
            <mxPoint as="offset" />
          </mxGeometry>
        </mxCell>
        <mxCell id="gBtnJPxGFzo9BNJ1tIfL-115" value="" style="endArrow=open;html=1;rounded=0;dashed=1;strokeColor=default;align=center;verticalAlign=middle;fontFamily=Helvetica;fontSize=11;fontColor=default;labelBackgroundColor=default;endFill=0;" parent="1" source="gBtnJPxGFzo9BNJ1tIfL-81" target="gBtnJPxGFzo9BNJ1tIfL-84" edge="1">
          <mxGeometry width="50" height="50" relative="1" as="geometry">
            <mxPoint x="308" y="1814" as="sourcePoint" />
            <mxPoint x="432" y="1796" as="targetPoint" />
          </mxGeometry>
        </mxCell>
        <mxCell id="gBtnJPxGFzo9BNJ1tIfL-133" value="&amp;lt;&amp;lt;include&amp;gt;&amp;gt;" style="edgeLabel;html=1;align=center;verticalAlign=middle;resizable=0;points=[];" parent="gBtnJPxGFzo9BNJ1tIfL-115" vertex="1" connectable="0">
          <mxGeometry x="-0.1093" relative="1" as="geometry">
            <mxPoint as="offset" />
          </mxGeometry>
        </mxCell>
        <mxCell id="gBtnJPxGFzo9BNJ1tIfL-116" value="" style="endArrow=open;html=1;rounded=0;endFill=0;" parent="1" source="gBtnJPxGFzo9BNJ1tIfL-29" target="gBtnJPxGFzo9BNJ1tIfL-76" edge="1">
          <mxGeometry width="50" height="50" relative="1" as="geometry">
            <mxPoint x="85" y="1704" as="sourcePoint" />
            <mxPoint x="251" y="1548" as="targetPoint" />
          </mxGeometry>
        </mxCell>
        <mxCell id="gBtnJPxGFzo9BNJ1tIfL-118" value="" style="endArrow=open;html=1;rounded=0;endFill=0;" parent="1" source="gBtnJPxGFzo9BNJ1tIfL-29" target="gBtnJPxGFzo9BNJ1tIfL-141" edge="1">
          <mxGeometry width="50" height="50" relative="1" as="geometry">
            <mxPoint x="95" y="1732" as="sourcePoint" />
            <mxPoint x="250" y="1663" as="targetPoint" />
          </mxGeometry>
        </mxCell>
        <mxCell id="gBtnJPxGFzo9BNJ1tIfL-119" value="" style="endArrow=open;html=1;rounded=0;endFill=0;" parent="1" source="gBtnJPxGFzo9BNJ1tIfL-29" target="gBtnJPxGFzo9BNJ1tIfL-81" edge="1">
          <mxGeometry width="50" height="50" relative="1" as="geometry">
            <mxPoint x="105" y="1742" as="sourcePoint" />
            <mxPoint x="260" y="1673" as="targetPoint" />
          </mxGeometry>
        </mxCell>
        <mxCell id="gBtnJPxGFzo9BNJ1tIfL-120" value="" style="endArrow=open;html=1;rounded=0;endFill=0;" parent="1" source="gBtnJPxGFzo9BNJ1tIfL-29" target="gBtnJPxGFzo9BNJ1tIfL-82" edge="1">
          <mxGeometry width="50" height="50" relative="1" as="geometry">
            <mxPoint x="85" y="1751" as="sourcePoint" />
            <mxPoint x="238" y="1808" as="targetPoint" />
          </mxGeometry>
        </mxCell>
        <mxCell id="gBtnJPxGFzo9BNJ1tIfL-141" value="访问主页" style="ellipse;whiteSpace=wrap;html=1;" parent="1" vertex="1">
          <mxGeometry x="200" y="1720" width="80" height="40" as="geometry" />
        </mxCell>
        <mxCell id="gBtnJPxGFzo9BNJ1tIfL-142" value="" style="endArrow=open;html=1;rounded=0;dashed=1;strokeColor=default;align=center;verticalAlign=middle;fontFamily=Helvetica;fontSize=11;fontColor=default;labelBackgroundColor=default;endFill=0;" parent="1" source="gBtnJPxGFzo9BNJ1tIfL-141" target="gBtnJPxGFzo9BNJ1tIfL-77" edge="1">
          <mxGeometry width="50" height="50" relative="1" as="geometry">
            <mxPoint x="250" y="1800" as="sourcePoint" />
            <mxPoint x="300" y="1750" as="targetPoint" />
          </mxGeometry>
        </mxCell>
        <mxCell id="gBtnJPxGFzo9BNJ1tIfL-146" value="&amp;lt;&amp;lt;include&amp;gt;&amp;gt;" style="edgeLabel;html=1;align=center;verticalAlign=middle;resizable=0;points=[];" parent="gBtnJPxGFzo9BNJ1tIfL-142" vertex="1" connectable="0">
          <mxGeometry x="0.0429" y="1" relative="1" as="geometry">
            <mxPoint as="offset" />
          </mxGeometry>
        </mxCell>
        <mxCell id="gBtnJPxGFzo9BNJ1tIfL-143" value="" style="endArrow=open;html=1;rounded=0;dashed=1;strokeColor=default;align=center;verticalAlign=middle;fontFamily=Helvetica;fontSize=11;fontColor=default;labelBackgroundColor=default;endFill=0;" parent="1" source="gBtnJPxGFzo9BNJ1tIfL-141" target="gBtnJPxGFzo9BNJ1tIfL-78" edge="1">
          <mxGeometry width="50" height="50" relative="1" as="geometry">
            <mxPoint x="284" y="1739" as="sourcePoint" />
            <mxPoint x="307" y="1731" as="targetPoint" />
          </mxGeometry>
        </mxCell>
        <mxCell id="gBtnJPxGFzo9BNJ1tIfL-147" value="&amp;lt;&amp;lt;include&amp;gt;&amp;gt;" style="edgeLabel;html=1;align=center;verticalAlign=middle;resizable=0;points=[];" parent="gBtnJPxGFzo9BNJ1tIfL-143" vertex="1" connectable="0">
          <mxGeometry x="0.1356" relative="1" as="geometry">
            <mxPoint as="offset" />
          </mxGeometry>
        </mxCell>
        <mxCell id="gBtnJPxGFzo9BNJ1tIfL-144" value="" style="endArrow=open;html=1;rounded=0;dashed=1;strokeColor=default;align=center;verticalAlign=middle;fontFamily=Helvetica;fontSize=11;fontColor=default;labelBackgroundColor=default;endFill=0;" parent="1" source="gBtnJPxGFzo9BNJ1tIfL-79" target="gBtnJPxGFzo9BNJ1tIfL-141" edge="1">
          <mxGeometry width="50" height="50" relative="1" as="geometry">
            <mxPoint x="287" y="1758" as="sourcePoint" />
            <mxPoint x="303" y="1762" as="targetPoint" />
          </mxGeometry>
        </mxCell>
        <mxCell id="gBtnJPxGFzo9BNJ1tIfL-145" value="&amp;lt;&amp;lt;extend&amp;gt;&amp;gt;" style="edgeLabel;html=1;align=center;verticalAlign=middle;resizable=0;points=[];" parent="gBtnJPxGFzo9BNJ1tIfL-144" vertex="1" connectable="0">
          <mxGeometry x="-0.1415" relative="1" as="geometry">
            <mxPoint as="offset" />
          </mxGeometry>
        </mxCell>
      </root>
    </mxGraphModel>
  </diagram>
</mxfile>
